<?xml version="1.0" encoding="UTF-8" standalone="no"?>
<!-- Created with Inkscape (http://www.inkscape.org/) -->

<svg
   width="100mm"
   height="100mm"
   viewBox="0 0 100 100"
   version="1.1"
   id="svg1"
   inkscape:version="1.3.2 (091e20e, 2023-11-25, custom)"
   sodipodi:docname="drawing.svg"
   xmlns:inkscape="http://www.inkscape.org/namespaces/inkscape"
   xmlns:sodipodi="http://sodipodi.sourceforge.net/DTD/sodipodi-0.dtd"
   xmlns="http://www.w3.org/2000/svg"
   xmlns:svg="http://www.w3.org/2000/svg">
  <sodipodi:namedview
     id="namedview1"
     pagecolor="#ffffff"
     bordercolor="#000000"
     borderopacity="0.25"
     inkscape:showpageshadow="2"
     inkscape:pageopacity="0.0"
     inkscape:pagecheckerboard="0"
     inkscape:deskcolor="#d1d1d1"
     inkscape:document-units="mm"
     inkscape:zoom="1.4164562"
     inkscape:cx="365.34839"
     inkscape:cy="204.3833"
     inkscape:window-width="1920"
     inkscape:window-height="991"
     inkscape:window-x="-9"
     inkscape:window-y="1341"
     inkscape:window-maximized="1"
     inkscape:current-layer="layer1" />
  <defs
     id="defs1" />
  <g
     inkscape:label="Layer 1"
     inkscape:groupmode="layer"
     id="layer1">
    <text
       xml:space="preserve"
       style="font-size:69.7074px;line-height:2;font-family:Calibri;-inkscape-font-specification:Calibri;font-variation-settings:normal;text-align:center;letter-spacing:-0.512317px;text-anchor:middle;opacity:1;vector-effect:none;fill:#454563;fill-opacity:1;stroke-width:1.93632;stroke-linecap:round;stroke-linejoin:round;stroke-miterlimit:4;stroke-dasharray:none;stroke-dashoffset:0;stroke-opacity:1;-inkscape-stroke:none"
       x="35.149818"
       y="77.519394"
       id="text2"
       transform="scale(1.5672803,0.63804797)"><tspan
         sodipodi:role="line"
         id="tspan2"
         style="font-style:normal;font-variant:normal;font-weight:normal;font-stretch:normal;font-size:69.7074px;font-family:Constantia;-inkscape-font-specification:Constantia;stroke-width:1.93632"
         x="34.893661"
         y="77.519394">p</tspan></text>
    <path
       id="path15914-0-2-8-6-2-01"
       style="fill:#3c3b73;stroke:#deddda;stroke-width:1.72045;stroke-linecap:round;stroke-linejoin:round"
       d="m -91.963194,24.011536 a 33.025713,33.025713 0 0 1 -33.025716,33.025711 33.025713,33.025713 0 0 1 -33.02571,-33.025711 33.025713,33.025713 0 0 1 33.02571,-33.0257162 33.025713,33.025713 0 0 1 33.025716,33.0257162 z" />
    <path
       style="fill:#deddda;fill-opacity:1;stroke:none;stroke-width:1.62387"
       d="m -126.10667,18.929033 c -1.42992,-1.007261 -2.62822,-2.200808 -3.86688,-3.437194 -0.85025,-0.848722 -1.67848,-1.733723 -2.57787,-2.531181 -1.79025,-1.587169 -6.09849,-2.031298 -4.88832,1.672188 0.76497,2.340945 3.54178,4.413832 5.24107,6.099026 0.60497,0.599899 1.79626,1.721536 0.74226,2.498659 -1.5335,1.130607 -5.28781,0.424654 -7.11012,0.424659 h -18.04536 v 4.726163 l 25.77903,-6e-6 c -1.45,3.109259 -4.96626,4.691645 -6.43088,7.733709 -0.97131,2.017563 0.75499,4.441582 2.99364,3.416967 2.99887,-1.372451 5.03112,-4.950372 7.73372,-6.854167 0.76641,3.219069 -0.52823,7.272742 0.68893,10.286441 0.76382,1.891201 3.38665,2.1945 4.455,0.391139 1.60724,-2.712987 0.13155,-7.571017 0.87117,-10.67758 2.63,2.009414 4.66868,5.489527 7.73378,6.855842 1.97336,0.879696 3.82302,-0.985292 3.16965,-2.988988 -1.03221,-3.165311 -5.13119,-5.458485 -7.03654,-8.163357 3.28188,-0.781378 7.64793,0.633981 10.67759,-0.688898 1.52197,-0.664565 1.75888,-3.089158 0.35676,-4.025308 -2.56794,-1.714602 -7.9775,-0.143554 -11.03435,-0.871265 1.92244,-2.729051 5.41387,-4.73254 6.86054,-7.733703 0.77156,-1.600755 -0.1389,-3.768261 -2.1364,-3.582372 -3.29903,0.306969 -6.40227,5.60481 -9.02068,7.449226 0,-2.219796 1.29866,-14.8483805 -3.80317,-12.0116472 -2.68162,1.4910931 -1.35262,9.3453712 -1.35262,12.0116422 z"
       id="path13983-6-7-0-6-0-3"
       sodipodi:nodetypes="cscccssccccccccccccccccccccc" />
    <path
       id="rect3-8-8-6-4-4"
       style="fill:#454563;fill-opacity:1;stroke:#deddda;stroke-width:1.72045;stroke-linecap:round;stroke-linejoin:round;stroke-dasharray:none"
       d="m 52.115696,5.0469877 c -2.99497,0.004 -4.2958,0.401015 -4.84485,1.477932 -0.11028,0.216335 -0.38917,1.212299 -0.61965,2.213184 -0.23043,1.00089 -0.55582,2.0897823 -0.72282,2.4197473 l -0.30406,0.599532 -4.34254,1.417171 -0.29454,0.09602 -3.86333,1.247953 -0.59803,-0.307027 c -0.11407,-0.05858 -0.31123,-0.194376 -0.53403,-0.355921 -0.68182,-0.78089 -1.60398,-1.526827 -2.50836,-2.041007 -0.35792,-0.285681 -0.65011,-0.504838 -0.76549,-0.563666 -0.56683,-0.288984 -1.19709,-0.294398 -2.01551,0.01302 -1.01989,0.311872 -2.41878,1.182656 -4.304,2.671943 -2.23699,1.76722 -2.48777,2.632865 -1.45304,5.018496 0.89533,2.064061 1.1538,3.072349 0.92819,3.62177 -0.18312,0.445947 -3.27293,4.826339 -4.56654,6.473896 -0.24671,0.314235 -0.4542,0.537119 -0.72517,0.686953 -0.58232,0.182661 -1.58993,0.184806 -3.30855,0.02047 -0.95232,-0.09108 -1.65398,-0.07867 -2.21141,0.104615 -0.0224,0.004 -0.0568,0.0061 -0.0756,0.01067 -1.10299,0.267359 -1.79776,1.371006 -2.78364,4.421632 -0.92101,2.849843 -0.94516,4.209676 -0.0904,5.064432 0.10277,0.102808 0.47898,0.360182 0.93231,0.654947 0.77478,0.724706 1.79828,1.397982 2.77894,1.818736 0.11905,0.09204 0.22159,0.175096 0.28066,0.233828 l 0.47651,0.474167 0.007,4.568036 v 0.253973 l -0.006,4.1155 -0.47656,0.474168 c -0.26226,0.260752 -1.1975,0.906403 -2.07831,1.434662 -0.88082,0.528265 -1.7419,1.101147 -1.9136,1.272849 -0.85478,0.854761 -0.83064,2.214595 0.0904,5.064431 0.98587,3.050632 1.68071,4.154573 2.78369,4.421931 0.29466,0.07146 1.05229,0.08641 1.68358,0.0332 3.45564,-0.291181 3.8401,-0.225643 4.63713,0.789492 1.29355,1.647557 4.38343,6.027955 4.56654,6.473896 0.22561,0.549421 -0.0327,1.557709 -0.92818,3.62177 -1.03474,2.385624 -0.78396,3.251275 1.45303,5.018495 2.53199,2.000239 4.18954,2.888239 5.22502,2.799085 v -2.99e-4 c 1.6853,-0.145108 4.47656,-2.287066 5.23694,-4.018884 0.30246,-0.68888 0.23301,-6.005651 -0.0907,-6.947181 l -0.28416,-0.82654 -2.76826,-2.66572 c -2.16261,-2.082797 -3.01641,-2.990313 -3.90331,-4.147805 -3.37409,-4.403446 -5.28976,-9.508967 -5.75646,-14.744304 -0.0126,-0.142355 -0.0252,-0.284631 -0.0356,-0.42705 -0.0212,-0.285016 -0.0361,-0.570278 -0.0487,-0.85588 -0.007,-0.169035 -0.0143,-0.338035 -0.0189,-0.507062 -0.007,-0.266344 -0.009,-0.532968 -0.008,-0.79957 4.6e-4,-0.187529 0,-0.375087 0.006,-0.562485 0.006,-0.242515 0.0149,-0.485029 0.0264,-0.727555 0.0103,-0.215631 0.0218,-0.431054 0.0373,-0.646351 0.0143,-0.209891 0.0327,-0.419717 0.0522,-0.629462 0.21775,-2.338404 0.72746,-4.648462 1.52563,-6.882274 l 0.70206,-1.443849 c 1.31323,-2.700061 1.91246,-3.792319 2.73954,-4.993303 3.14659,-4.569213 7.41142,-7.967691 12.24721,-10.028099 0.13116,-0.05574 0.26225,-0.111646 0.39415,-0.16537 0.26392,-0.107792 0.53008,-0.210153 0.79721,-0.309985 0.1612,-0.06013 0.32241,-0.120042 0.48453,-0.177224 0.24568,-0.08678 0.49308,-0.168862 0.74117,-0.248938 0.18421,-0.05935 0.36864,-0.118097 0.55393,-0.173662 0.22825,-0.06858 0.45776,-0.13298 0.68784,-0.195897 0.21138,-0.05766 0.42306,-0.114094 0.63565,-0.166843 0.20255,-0.05041 0.40614,-0.09738 0.60996,-0.14344 5.09208,-1.144663 10.49951,-0.891103 15.69293,0.945377 1.37481,0.486154 2.50125,1.018118 5.15006,2.431899 l 3.39061,1.809549 0.87393,0.01514 c 0.99551,0.0172 6.073943,-1.558397 6.635728,-2.058791 1.412434,-1.257983 2.587847,-4.574235 2.205506,-6.221992 -0.234957,-1.012429 -1.591534,-2.314812 -4.275841,-4.105424 -2.371643,-1.582013 -3.272303,-1.553115 -5.221803,0.167738 -1.68673,1.488891 -2.56605,2.045911 -3.15823,2.000995 -0.4807,-0.03647 -5.60122,-1.622552 -7.56776,-2.344173 -1.2116,-0.444617 -1.39259,-0.790118 -2.18268,-4.1667693 -0.14434,-0.616851 -0.3926,-1.332932 -0.55152,-1.591137 -0.59487,-0.966516 -1.859,-1.286612 -5.06501,-1.282334 z" />
    <rect
       style="fill:#454563;fill-opacity:1;stroke-width:1.00247;stroke-linecap:round;stroke-linejoin:round"
       id="rect1"
       width="95"
       height="30"
       x="2.4988432"
       y="58.933018"
       rx="9"
       ry="9" />
    <ellipse
       style="fill:#5195e8;stroke-width:0.876032;stroke-linecap:round;stroke-linejoin:round;fill-opacity:1"
       id="path1"
       cx="16.734324"
       cy="73.933022"
       rx="9.0698814"
       ry="9.09375" />
    <ellipse
       style="fill:#e33e4a;stroke-width:0.876032;stroke-linecap:round;stroke-linejoin:round;fill-opacity:1"
       id="path1-7"
       cx="38.910675"
       cy="73.933022"
       rx="9.0698814"
       ry="9.09375" />
    <ellipse
       style="fill:#4fd568;fill-opacity:1;stroke-width:0.876032;stroke-linecap:round;stroke-linejoin:round"
       id="path1-9"
       cx="61.087025"
       cy="73.933022"
       rx="9.0698814"
       ry="9.09375" />
    <ellipse
       style="fill:#f8dc56;stroke-width:0.876032;stroke-linecap:round;stroke-linejoin:round;fill-opacity:1"
       id="path1-98"
       cx="83.263367"
       cy="73.933022"
       rx="9.0698814"
       ry="9.09375" />
    <rect
       style="fill:#3d3846;fill-opacity:1;stroke-width:1;stroke-linecap:round;stroke-linejoin:round"
       id="rect2"
       width="0.3735849"
       height="0.28018868"
       x="52.675468"
       y="38.199059"
       rx="9"
       ry="0.28018868" />
  </g>
</svg>
